<svg xmlns="http://www.w3.org/2000/svg" viewBox="0 0 1600 1000" role="img" aria-labelledby="title desc">
  <title id="title">Reviewed handoff recording preview</title>
  <desc id="desc">Two terminal panels connected through a central review checkpoint.</desc>
  <rect width="1600" height="1000" fill="#0b0d10"/>
  <circle cx="800" cy="130" r="270" fill="#f4c95d" fill-opacity="0.09"/>
  <g fill="#14181e" stroke="#46505d" stroke-width="4">
    <rect x="110" y="190" width="560" height="620" rx="34"/>
    <rect x="930" y="190" width="560" height="620" rx="34"/>
    <rect x="660" y="350" width="280" height="300" rx="34" fill="#1b2028"/>
  </g>
  <g fill="#bbb3a6">
    <circle cx="160" cy="245" r="11"/>
    <circle cx="198" cy="245" r="11"/>
    <circle cx="236" cy="245" r="11"/>
    <circle cx="980" cy="245" r="11"/>
    <circle cx="1018" cy="245" r="11"/>
    <circle cx="1056" cy="245" r="11"/>
  </g>
  <g stroke="#f7f2e8" stroke-linecap="round" stroke-width="18" opacity="0.78">
    <path d="M170 350h300"/>
    <path d="M170 420h410"/>
    <path d="M170 490h250"/>
    <path d="M990 350h300"/>
    <path d="M990 420h410"/>
    <path d="M990 490h250"/>
  </g>
  <g stroke="#f4c95d" stroke-linecap="round" stroke-linejoin="round" stroke-width="22" fill="none">
    <path d="M535 650h125"/>
    <path d="m620 610 40 40-40 40"/>
    <path d="M940 650h125"/>
    <path d="m980 610-40 40 40 40"/>
    <path d="m735 500 48 48 94-106"/>
  </g>
</svg>
